{
  "accessors": [
    {
      "bufferView": 2,
      "componentType": 5126,
      "count": 329,
      "max": [
        0.7201529741287231,
        0.7972959876060486,
        -0.29896798729896545
      ],
      "min": [
        -0.7201529741287231,
        0.06868299841880798,
        -1.0
      ],
      "type": "VEC3"
    },
    {
      "bufferView": 2,
      "byteOffset": 3948,
      "componentType": 5126,
      "count": 329,
      "max": [
        0.9999966621398926,
        0.997656524181366,
        0.9999107718467712
      ],
      "min": [
        -0.9999858736991882,
        -0.3692578971385956,
        -0.9998520016670227
      ],
      "type": "VEC3"
    },
    {
      "bufferView": 3,
      "componentType": 5126,
      "count": 329,
      "max": [
        0.9991790056228638,
        0.999999463558197,
        0.9999845027923584,
        1.0
      ],
      "min": [
        -1.0,
        -0.999999463558197,
        -0.9992281198501587,
        -1.0
      ],
      "type": "VEC4"
    },
    {
      "bufferView": 1,
      "componentType": 5126,
      "count": 329,
      "max": [
        0.999925971031189,
        0.995415985584259
      ],
      "min": [
        0.0016234100330621004,
        -0.01646050065755844
      ],
      "type": "VEC2"
    },
    {
      "bufferView": 0,
      "componentType": 5125,
      "count": 1161,
      "type": "SCALAR"
    },
    {
      "bufferView": 2,
      "byteOffset": 7896,
      "componentType": 5126,
      "count": 329,
      "max": [
        0.7201529741287231,
        0.3643069863319397,
        0.3505159914493561
      ],
      "min": [
        -0.7201529741287231,
        -0.3643060028553009,
        -0.3505159914493561
      ],
      "type": "VEC3"
    },
    {
      "bufferView": 2,
      "byteOffset": 11844,
      "componentType": 5126,
      "count": 329,
      "max": [
        0.9999966621398926,
        0.997656524181366,
        0.9999107718467712
      ],
      "min": [
        -0.9999858736991882,
        -0.3692578971385956,
        -0.9998520016670227
      ],
      "type": "VEC3"
    },
    {
      "bufferView": 3,
      "byteOffset": 5264,
      "componentType": 5126,
      "count": 329,
      "max": [
        0.9991790056228638,
        0.999999463558197,
        0.9999845027923584,
        1.0
      ],
      "min": [
        -1.0,
        -0.999999463558197,
        -0.9992281198501587,
        -1.0
      ],
      "type": "VEC4"
    },
    {
      "bufferView": 1,
      "byteOffset": 2632,
      "componentType": 5126,
      "count": 329,
      "max": [
        0.999925971031189,
        0.995415985584259
      ],
      "min": [
        0.0016234100330621004,
        -0.01646050065755844
      ],
      "type": "VEC2"
    },
    {
      "bufferView": 0,
      "byteOffset": 4644,
      "componentType": 5125,
      "count": 1161,
      "type": "SCALAR"
    },
    {
      "bufferView": 2,
      "byteOffset": 15792,
      "componentType": 5126,
      "count": 329,
      "max": [
        0.7201529741287231,
        -0.06868290156126022,
        1.0
      ],
      "min": [
        -0.7201529741287231,
        -0.7972959876060486,
        0.29896900057792664
      ],
      "type": "VEC3"
    },
    {
      "bufferView": 2,
      "byteOffset": 19740,
      "componentType": 5126,
      "count": 329,
      "max": [
        0.9999966621398926,
        0.997656524181366,
        0.9999107718467712
      ],
      "min": [
        -0.9999858736991882,
        -0.3692578971385956,
        -0.9998520016670227
      ],
      "type": "VEC3"
    },
    {
      "bufferView": 3,
      "byteOffset": 10528,
      "componentType": 5126,
      "count": 329,
      "max": [
        0.9991790056228638,
        0.999999463558197,
        0.9999845027923584,
        1.0
      ],
      "min": [
        -1.0,
        -0.999999463558197,
        -0.9992281198501587,
        -1.0
      ],
      "type": "VEC4"
    },
    {
      "bufferView": 1,
      "byteOffset": 5264,
      "componentType": 5126,
      "count": 329,
      "max": [
        0.999925971031189,
        0.995415985584259
      ],
      "min": [
        0.0016234100330621004,
        -0.01646050065755844
      ],
      "type": "VEC2"
    },
    {
      "bufferView": 0,
      "byteOffset": 9288,
      "componentType": 5125,
      "count": 1161,
      "type": "SCALAR"
    }
  ],
  "asset": {
    "extras": {
      "author": "Danylo Tyupa (https://sketchfab.com/danzl0)",
      "license": "CC-BY-4.0 (http://creativecommons.org/licenses/by/4.0/)",
      "source": "https://sketchfab.com/3d-models/mossy-stairs-4ec88a1eb2174e358be2ee3f00e6005a",
      "title": "Mossy Stairs"
    },
    "generator": "Sketchfab-12.68.0",
    "version": "2.0"
  },
  "bufferViews": [
    {
      "buffer": 0,
      "byteLength": 13932,
      "name": "floatBufferViews",
      "target": 34963
    },
    {
      "buffer": 0,
      "byteLength": 7896,
      "byteOffset": 13932,
      "byteStride": 8,
      "name": "floatBufferViews",
      "target": 34962
    },
    {
      "buffer": 0,
      "byteLength": 23688,
      "byteOffset": 21828,
      "byteStride": 12,
      "name": "floatBufferViews",
      "target": 34962
    },
    {
      "buffer": 0,
      "byteLength": 15792,
      "byteOffset": 45516,
      "byteStride": 16,
      "name": "floatBufferViews",
      "target": 34962
    }
  ],
  "buffers": [
    {
      "byteLength": 61308,
      "uri": "scene.bin"
    }
  ],
  "images": [
    {
      "uri": "textures/lambert1_baseColor.jpeg"
    },
    {
      "uri": "textures/lambert1_metallicRoughness.png"
    },
    {
      "uri": "textures/lambert1_normal.jpeg"
    },
    {
      "uri": "textures/lambert2_baseColor.jpeg"
    },
    {
      "uri": "textures/lambert2_metallicRoughness.png"
    },
    {
      "uri": "textures/lambert2_normal.jpeg"
    },
    {
      "uri": "textures/lambert3_baseColor.jpeg"
    },
    {
      "uri": "textures/lambert3_metallicRoughness.png"
    },
    {
      "uri": "textures/lambert3_normal.jpeg"
    }
  ],
  "materials": [
    {
      "doubleSided": true,
      "name": "lambert1",
      "normalTexture": {
        "index": 2
      },
      "occlusionTexture": {
        "index": 1
      },
      "pbrMetallicRoughness": {
        "baseColorTexture": {
          "index": 0
        },
        "metallicRoughnessTexture": {
          "index": 1
        }
      }
    },
    {
      "doubleSided": true,
      "name": "lambert2",
      "normalTexture": {
        "index": 5
      },
      "occlusionTexture": {
        "index": 4
      },
      "pbrMetallicRoughness": {
        "baseColorTexture": {
          "index": 3
        },
        "metallicRoughnessTexture": {
          "index": 4
        }
      }
    },
    {
      "doubleSided": true,
      "name": "lambert3",
      "normalTexture": {
        "index": 8
      },
      "occlusionTexture": {
        "index": 7
      },
      "pbrMetallicRoughness": {
        "baseColorTexture": {
          "index": 6
        },
        "metallicRoughnessTexture": {
          "index": 7
        }
      }
    }
  ],
  "meshes": [
    {
      "name": "defaultMaterial",
      "primitives": [
        {
          "attributes": {
            "NORMAL": 1,
            "POSITION": 0,
            "TANGENT": 2,
            "TEXCOORD_0": 3
          },
          "indices": 4,
          "material": 2,
          "mode": 4
        }
      ]
    },
    {
      "name": "defaultMaterial",
      "primitives": [
        {
          "attributes": {
            "NORMAL": 6,
            "POSITION": 5,
            "TANGENT": 7,
            "TEXCOORD_0": 8
          },
          "indices": 9,
          "material": 1,
          "mode": 4
        }
      ]
    },
    {
      "name": "defaultMaterial",
      "primitives": [
        {
          "attributes": {
            "NORMAL": 11,
            "POSITION": 10,
            "TANGENT": 12,
            "TEXCOORD_0": 13
          },
          "indices": 14,
          "material": 0,
          "mode": 4
        }
      ]
    }
  ],
  "nodes": [
    {
      "children": [
        1
      ],
      "matrix": [
        1.0,
        0.0,
        0.0,
        0.0,
        0.0,
        2.220446049250313e-16,
        -1.0,
        0.0,
        0.0,
        1.0,
        2.220446049250313e-16,
        0.0,
        0.0,
        0.0,
        0.0,
        1.0
      ],
      "name": "Sketchfab_model"
    },
    {
      "children": [
        2,
        4,
        6
      ],
      "matrix": [
        1.0,
        0.0,
        0.0,
        0.0,
        0.0,
        -4.371139006309477e-08,
        0.999999999999999,
        0.0,
        0.0,
        -0.999999999999999,
        -4.371139006309477e-08,
        0.0,
        0.0,
        0.0,
        0.0,
        1.0
      ],
      "name": "Collada visual scene group"
    },
    {
      "children": [
        3
      ],
      "name": "polySurface48"
    },
    {
      "mesh": 0,
      "name": "defaultMaterial"
    },
    {
      "children": [
        5
      ],
      "name": "polySurface47"
    },
    {
      "mesh": 1,
      "name": "defaultMaterial"
    },
    {
      "children": [
        7
      ],
      "name": "polySurface46"
    },
    {
      "mesh": 2,
      "name": "defaultMaterial"
    }
  ],
  "samplers": [
    {
      "magFilter": 9729,
      "minFilter": 9987,
      "wrapS": 10497,
      "wrapT": 10497
    }
  ],
  "scene": 0,
  "scenes": [
    {
      "name": "Sketchfab_Scene",
      "nodes": [
        0
      ]
    }
  ],
  "textures": [
    {
      "sampler": 0,
      "source": 0
    },
    {
      "sampler": 0,
      "source": 1
    },
    {
      "sampler": 0,
      "source": 2
    },
    {
      "sampler": 0,
      "source": 3
    },
    {
      "sampler": 0,
      "source": 4
    },
    {
      "sampler": 0,
      "source": 5
    },
    {
      "sampler": 0,
      "source": 6
    },
    {
      "sampler": 0,
      "source": 7
    },
    {
      "sampler": 0,
      "source": 8
    }
  ]
}
